<svg id="Layer_1" data-name="Layer 1" xmlns="http://www.w3.org/2000/svg" xmlns:xlink="http://www.w3.org/1999/xlink" viewBox="0 0 698 269.51"><defs><style>.cls-1{fill:none;}.cls-2{clip-path:url(#clip-path);}.cls-3{fill:#bbd871;}.cls-4{fill:#cddc2a;}.cls-5{fill:#007365;}.cls-6{fill:#fff;}.cls-7{fill:#71c276;}.cls-8{fill:#26a1d0;}.cls-9{fill:#22b573;}.cls-10{fill:#00557a;}</style><clipPath id="clip-path"><circle class="cls-1" cx="134.28" cy="134.32" r="134.5"/></clipPath></defs><g class="cls-2"><path class="cls-3" d="M237.51,208.07c-43.06-26.64-75.66-97.68-90.71-97.68-11.94,0-38,49.81-46.61,63.28-3.1,37.74,6.51,69.57,31.91,94.25A135.2,135.2,0,0,0,237.51,208.07Z"/><path class="cls-4" d="M232.82,226.93a142.22,142.22,0,0,1-62.13,37.48A135.27,135.27,0,0,0,232.82,226.93Z"/><path class="cls-5" d="M122.82,170.31C90.46,201.64,23.1,198,15.83,197.49a127,127,0,0,0,8.62,14.63,165.94,165.94,0,0,0,20,23,135.33,135.33,0,0,0,126.23,29.28,142.22,142.22,0,0,0,62.13-37.48,134.07,134.07,0,0,0,31.27-55.13C236.86,177.81,172.07,188.75,122.82,170.31Z"/><path class="cls-6" d="M107.2,164.75h-.33l.11,0Z"/><path class="cls-5" d="M89.61,197.82c.11,2.3,2.51,4.76,6.62,7.37,17.87-9.66,31.38-23.14,38.28-31.11C126.71,179.82,89.1,187.29,89.61,197.82Z"/><path class="cls-7" d="M134.51,174.08c-5.87-2.2-22.78-7.69-27.53-9.28l-.11,0c-12.36-4.16-21.35-7.4-29.24-15.65C64.87,135.79,68,124.17,58,116.64s-42.56-8.13-56-5.36c-6.4,35,2.84,64.11,12.45,83.47C42.09,177.4,135,173.71,134.51,174.08Z"/><path class="cls-8" d="M96.23,205.19c-4.11-2.61-6.51-5.07-6.62-7.37-.51-10.53,37.1-18,44.9-23.74.5-.37-92.42,3.32-120.07,20.67a149.73,149.73,0,0,0,8.86,15.48C51,222,76.31,216,96.23,205.19Z"/><path class="cls-8" d="M206.29,248.73c-39.07-17.24-91.74-31.92-110.06-43.54C76.31,216,51,222,23.3,210.23a149.73,149.73,0,0,1-8.86-15.48c-.08,0-.15.1-.22.14A134.67,134.67,0,0,0,38.39,229c18.48,1.3,61.42,5.36,61.83,35.18a5.7,5.7,0,0,1-.07.92,134.43,134.43,0,0,0,106.14-16.32Z"/><path class="cls-1" d="M-.13,134.43a134.47,134.47,0,0,1,268.94,0"/></g><g class="cls-2"><path class="cls-3" d="M237.51,208.07c-43.06-26.64-75.66-97.68-90.71-97.68-11.94,0-38,49.81-46.61,63.28-3.1,37.74,6.51,69.57,31.91,94.25A135.2,135.2,0,0,0,237.51,208.07Z"/><path class="cls-9" d="M134.51,174.08c41.76-38.49,78.27-110.61,92.54-110.61,10.73,0,41.73,35.05,41.73,63.05,1,41-11,72-38,102C182.86,226.06,159.66,211.57,134.51,174.08Z"/><path class="cls-4" d="M232.82,226.93a142.22,142.22,0,0,1-62.13,37.48A135.27,135.27,0,0,0,232.82,226.93Z"/><path class="cls-5" d="M122.82,170.31C90.46,201.64,23.1,198,15.83,197.49a127,127,0,0,0,8.62,14.63,165.94,165.94,0,0,0,20,23,135.33,135.33,0,0,0,126.23,29.28,142.22,142.22,0,0,0,62.13-37.48,134.07,134.07,0,0,0,31.27-55.13C236.86,177.81,172.07,188.75,122.82,170.31Z"/><path class="cls-6" d="M107.2,164.75h-.33l.11,0Z"/><path class="cls-5" d="M89.61,197.82c.11,2.3,2.51,4.76,6.62,7.37,17.87-9.66,31.38-23.14,38.28-31.11C126.71,179.82,89.1,187.29,89.61,197.82Z"/><path class="cls-7" d="M134.51,174.08c-5.87-2.2-22.78-7.69-27.53-9.28l-.11,0c-12.36-4.16-21.35-7.4-29.24-15.65C64.87,135.79,68,124.17,58,116.64s-42.56-8.13-56-5.36c-6.4,35,2.84,64.11,12.45,83.47C42.09,177.4,135,173.71,134.51,174.08Z"/><path class="cls-8" d="M96.23,205.19c-4.11-2.61-6.51-5.07-6.62-7.37-.51-10.53,37.1-18,44.9-23.74.5-.37-92.42,3.32-120.07,20.67-.08,0-.15.1-.22.14A134.67,134.67,0,0,0,38.39,229c18.48,1.3,61.42,5.36,61.83,35.18a5.7,5.7,0,0,1-.07.92,134.43,134.43,0,0,0,106.14-16.32C167.22,231.49,114.55,216.81,96.23,205.19Z"/><path class="cls-1" d="M-.13,134.43a134.47,134.47,0,0,1,268.94,0"/></g><path class="cls-10" d="M578.21,41.51h-5.59c-3.67,0-7.33,0-11,0a3,3,0,0,0-3.12,2.18q-7.46,20.78-15,41.53l-.83,2.3c-.1.27-.2.55-.31.83l-1.21-2.61q-9.79-21.21-19.61-42.4a3.34,3.34,0,0,0-1-1.17l-.28-.25a1.22,1.22,0,0,0-.89-.37,1.3,1.3,0,0,0-.89.38l-.29.26a3.67,3.67,0,0,0-1,1.16Q510.39,58,503.59,72.75l-7.14,15.42-2.24-6.29q-6.85-19.24-13.68-38.5a2.64,2.64,0,0,0-2.77-1.89c-3.31,0-6.62,0-9.93,0H461a1.23,1.23,0,0,0-1,.51,1.2,1.2,0,0,0-.18,1.11l.18.56c.09.3.16.52.24.75l2,5.52q14.91,40.47,29.83,80.92a3.37,3.37,0,0,0,1.84,1.83,2.42,2.42,0,0,0,.82.16c1.27,0,1.87-1.29,2.1-1.77q8.61-18.42,17.25-36.84l5.39-11.48,11.47,24.69q5.48,11.77,11,23.54a3.1,3.1,0,0,0,2.37,1.66,2.92,2.92,0,0,0,2.35-1.72c.42-.93.76-1.89,1.11-2.85l29.34-78.69c.53-1.41,1-2.82,1.58-4.3l.71-1.93a1.24,1.24,0,0,0-1.17-1.67Z"/><path class="cls-10" d="M449.94,115.23H404.45v-19h41.49A1.24,1.24,0,0,0,447.18,95V79.9a1.23,1.23,0,0,0-1.24-1.24H404.48V59h46.86a1.24,1.24,0,0,0,1.24-1.24V42.81a1.24,1.24,0,0,0-1.24-1.25h-65a1.25,1.25,0,0,0-1.24,1.25V131.4a1.25,1.25,0,0,0,1.24,1.25h65.08a1.24,1.24,0,0,0,1.24-1.25v-4.84q0-3.94,0-7.88v-.8a2.68,2.68,0,0,0-.52-2.11A2.79,2.79,0,0,0,449.94,115.23Z"/><path class="cls-10" d="M697.31,103.37c-.61-9-4.86-15.75-12.62-20a49.91,49.91,0,0,0-14.1-4.75l-2.05-.42c-4.78-1-9.72-2-14.53-3.16a17.59,17.59,0,0,1-8.82-4.57,6.11,6.11,0,0,1,.06-8.55A11.07,11.07,0,0,1,651.37,59a36.69,36.69,0,0,1,22.47,3.12c1.92.89,3.77,1.9,5.73,3l2.72,1.47a1.25,1.25,0,0,0,1.59-.37l9.3-12.79a1.29,1.29,0,0,0,.22-1,1.26,1.26,0,0,0-.56-.81c-1-.62-1.92-1.25-2.86-1.88a61.12,61.12,0,0,0-6.31-3.86c-12.4-6.28-25.85-7.47-40-3.56C631.57,45.7,624.41,54.51,624,66.5c-.24,7.88,2.19,14,7.44,18.81a31,31,0,0,0,12.82,7c4.59,1.25,9.3,2.27,13.85,3.25l4.63,1,.89.2c3.64.8,7.09,1.56,10.15,3.45a8.17,8.17,0,0,1,3.63,3.79c1.63,4-.22,8.32-4.4,10.26S664,116.81,658,116a54.52,54.52,0,0,1-23.24-9.38l-.76-.47-.35-.21a1.25,1.25,0,0,0-1.69.38l-8.33,12.63a1.54,1.54,0,0,0,.21,1.65,2.06,2.06,0,0,0,.49.49l1.86,1.3c1.48,1,3,2.07,4.48,3a57.21,57.21,0,0,0,30.75,9.12,62.61,62.61,0,0,0,16.77-2.37C686,130,691.6,125.4,694.87,118.6,696.94,114.29,697.71,109.45,697.31,103.37Z"/><path class="cls-10" d="M376.09,115.93a3.06,3.06,0,0,0-2.33-.73q-17.26.06-34.54,0h-9.41V42.81a1.24,1.24,0,0,0-1.25-1.24h-16.9a1.24,1.24,0,0,0-1.25,1.24v88.61a1.24,1.24,0,0,0,1.16,1.24l.39,0a8,8,0,0,0,.83.05h14.15q23.6,0,47.19,0h0a2.32,2.32,0,0,0,2.62-2.65c-.05-3.59-.09-7.77,0-11.93A3,3,0,0,0,376.09,115.93Z"/><path class="cls-10" d="M608.53,43.94a2.23,2.23,0,0,0-.5-1.78,2.47,2.47,0,0,0-1.87-.67c-1.64,0-3.29,0-4.94,0h-10.9a1.23,1.23,0,0,0-1.24,1.24V91.34q0,19.34,0,38.67a2.84,2.84,0,0,0,.69,2.11,2.71,2.71,0,0,0,2,.65h.12c3.26-.05,6.52,0,9.78,0h3.69c2.65,0,3.22-.57,3.22-3.22V44.43A2.67,2.67,0,0,1,608.53,43.94Z"/><path class="cls-10" d="M339.77,160c7.35,0,22.65,2.77,22.65,12.11v6.48h-5.79v-4.84c0-6-10.37-8.3-16.6-8.3-14.1,0-24.73,10.72-24.73,25.42,0,15.13,10.63,26.55,25.08,26.55,4.92,0,17.2-1.9,17.2-8.3v-4.76h5.8v6.49c0,8.82-14.79,12-23.18,12C322,222.84,309,208.66,309,191S322.39,160,339.77,160Z"/><path class="cls-10" d="M404.1,160a30.75,30.75,0,0,1,31,31c0,17.82-13.75,31.82-31,31.82s-31-14-31-31.82A30.73,30.73,0,0,1,404.1,160Zm0,57.33c13.66,0,24.72-11.41,24.72-26.29,0-14.52-11.06-25.5-24.72-25.5s-24.65,11-24.65,25.5C379.45,205.9,390.52,217.31,404.1,217.31Z"/><path class="cls-10" d="M450.18,166h-8v-5h22v5h-8v33.3c0,4.41.86,8.3,2.68,11.15,2.85,4.41,8,6.83,14.61,6.83s11.94-2.51,14.62-7.09a21.62,21.62,0,0,0,2.68-11.07V166h-8v-5h22v5h-7.95v33.38c0,5.62-1.38,10.72-3.89,14.36-4,5.88-11.07,9.07-19.46,9.07s-15.73-3.28-19.63-9.16c-2.59-3.81-3.71-8.56-3.71-14.27Z"/><path class="cls-10" d="M512.34,216.79h8V166h-8v-5h13.84l34.06,48a29.89,29.89,0,0,1,1.82,3.72h.17a30.64,30.64,0,0,1-.26-4.24V166h-8v-5H576v5h-8v55.78h-5.88l-34.07-48a30.62,30.62,0,0,1-1.82-3.72h-.17a30,30,0,0,1,.26,4.15v42.54h8v5h-22Z"/><path class="cls-10" d="M597,216.79h8V166.21h-17v9.86h-5.45V161h51v15h-5.54v-9.86H611v50.58h8v5H597Z"/><path class="cls-10" d="M653.1,216.79h7.95v-21.1L643.15,166h-6v-5h19.19v5h-6.74l13.14,22.14c.61,1,1.21,2.34,1.21,2.34h.18a19.33,19.33,0,0,1,1.21-2.34L678.6,166h-6.74v-5H691v5h-6l-17.9,29.66v21.1h8v5h-22Z"/><path class="cls-10" d="M436.43,248.06a.27.27,0,0,1,.25-.24.48.48,0,0,1,.38.18l14.61,18V248.36A.35.35,0,0,1,452,248h.66a.35.35,0,0,1,.36.36v20.52a.27.27,0,0,1-.27.27.68.68,0,0,1-.45-.21l-14.52-17.85v17.55a.35.35,0,0,1-.36.36h-.66a.35.35,0,0,1-.36-.36Z"/><path class="cls-10" d="M470.27,248.36a.35.35,0,0,1,.36-.36h12.6a.35.35,0,0,1,.36.36v.42a.35.35,0,0,1-.36.36H471.65v8.79h9.09a.35.35,0,0,1,.36.36v.42a.35.35,0,0,1-.36.36h-9.09v8.79h11.58a.35.35,0,0,1,.36.36v.42a.35.35,0,0,1-.36.36h-12.6a.35.35,0,0,1-.36-.36Z"/><path class="cls-10" d="M506.48,266.3,513.62,248a.32.32,0,0,1,.6,0l7.23,18.27,7.2-18a.55.55,0,0,1,.51-.33h.9a.22.22,0,0,1,.21.33L521.81,269a.39.39,0,0,1-.72,0L514,251l-7.11,18a.39.39,0,0,1-.72,0l-8.46-20.64a.22.22,0,0,1,.21-.33h.9a.49.49,0,0,1,.48.33Z"/><path class="cls-10" d="M570.71,259.37l-6.87-11.07a.21.21,0,0,1,.18-.3h.84a.67.67,0,0,1,.54.3l6.06,9.9,6.06-9.9a.67.67,0,0,1,.54-.3h.84a.21.21,0,0,1,.18.3l-6.87,11.1v9.24a.35.35,0,0,1-.36.36h-.78a.35.35,0,0,1-.36-.36Z"/><path class="cls-10" d="M592,258.5c0-4.47,2.34-10.74,10.35-10.74s10.38,6.27,10.38,10.74-2.34,10.71-10.38,10.71S592,262.91,592,258.5Zm1.38-.06c0,2.43.87,9.57,9,9.57,7.8,0,9-6.72,9-9.51s-1.2-9.57-9-9.57S593.36,255.74,593.36,258.44Z"/><path class="cls-10" d="M630.11,268.64a.35.35,0,0,1-.36.36h-.66a.35.35,0,0,1-.36-.36V248.36a.35.35,0,0,1,.36-.36h7.29c5.43,0,7.08,3.78,7.08,6.3a6.37,6.37,0,0,1-5.76,6.3l3.93,8.07a.25.25,0,0,1-.21.33h-.72a.55.55,0,0,1-.51-.33l-3.9-8h-6.18Zm6.45-9.12c4.23-.09,5.58-3.15,5.58-5.22a5.16,5.16,0,0,0-5.43-5.16h-6.6v10.38Z"/><path class="cls-10" d="M659.78,269a.35.35,0,0,1-.36-.36V248.36a.35.35,0,0,1,.36-.36h.66a.35.35,0,0,1,.36.36v9.51l11-9.63a1,1,0,0,1,.63-.24h1a.19.19,0,0,1,.18.18.54.54,0,0,1-.12.27l-11.28,9.72,12.24,10.47a.34.34,0,0,1,.09.24.14.14,0,0,1-.15.12h-1.2a1,1,0,0,1-.63-.24L660.8,258.5v10.14a.35.35,0,0,1-.36.36Z"/></svg>